# xmcd CD database file
#
# Track frame offsets:
#	150
#	18612
#	30001
#	42911
#	53442
#	69492
#	83399
#	95558
#	107186
#	118940
#
# Disc length: 1761 seconds
#
# Revision: 0
# Processed by: cddbd v1.5.1PL2 Copyright (c) Steve Scherf et al.
# Submitted via: CDex 1.51
#
DISCID=7206df0a
DTITLE=B.B. King - Why I Sing The Blues (part 2)
DYEAR=1992
DGENRE=Blues
TTITLE0=Don't answer the door
TTITLE1=Mean Ole Frisco
TTITLE2=Going down slow
TTITLE3=Talkin' the blues
TTITLE4=It's my own fault
TTITLE5=How blue can you get
TTITLE6=Help the poor
TTITLE7=She's a mean woman
TTITLE8=Hard working woman
TTITLE9=Questionnaire Blues
EXTD=YEAR: 1992
EXTT0=
EXTT1=
EXTT2=
EXTT3=
EXTT4=
EXTT5=
EXTT6=
EXTT7=
EXTT8=
EXTT9=
PLAYORDER=
